<svg class="svg-icon" style="width: 1em; height: 1em;vertical-align: middle;fill: currentColor;overflow: hidden;" viewBox="0 0 1024 1024" version="1.1" xmlns="http://www.w3.org/2000/svg"><path d="M512 0C230.4 0 0 230.4 0 512c0 281.6 230.4 512 512 512s512-230.4 512-512C1024 230.4 793.6 0 512 0zM512 972.8c-253.44 0-460.8-207.36-460.8-460.8S258.56 51.2 512 51.2s460.8 207.36 460.8 460.8S765.44 972.8 512 972.8z"  /><path d="M737.28 596.48c-15.36 0-25.6 10.24-25.6 25.6l0 76.8L309.76 698.88l0-66.56c0-15.36-10.24-25.6-25.6-25.6s-25.6 10.24-25.6 25.6l0 92.16c0 15.36 10.24 25.6 25.6 25.6l453.12 0c15.36 0 25.6-10.24 25.6-25.6l0-102.4C762.88 609.28 750.08 596.48 737.28 596.48z"  /><path d="M376.32 399.36c7.68 0 12.8-2.56 17.92-7.68l89.6-89.6 0 330.24c0 15.36 10.24 25.6 25.6 25.6s25.6-10.24 25.6-25.6l0-332.8 89.6 89.6c10.24 10.24 25.6 10.24 35.84 0s10.24-25.6 0-35.84l-133.12-133.12c-10.24-10.24-25.6-10.24-35.84 0L358.4 355.84c-10.24 10.24-10.24 25.6 0 35.84C363.52 396.8 371.2 399.36 376.32 399.36z"  /></svg>